# xmcd CD database file
#
# Track frame offsets:
#	150
#	47922
#	93389
#	134927
#	173464
#	197892
#	236872
#
# Disc length: 3747 seconds
#
# Revision: 0
# Processed by: cddbd v1.5PL3 Copyright (c) Steve Scherf et al.
# Submitted via: CDex 1.50
#
DISCID=650ea107
DTITLE=Barry Elmes - Differrent Voices (disk 1)
DYEAR=1997
DGENRE=Jazz
TTITLE0=Fleur Du Cap
TTITLE1=Forest Flower
TTITLE2=Wilma's Walk
TTITLE3=Patron Saint
TTITLE4=How My Heart Sings
TTITLE5=Cutie
TTITLE6=Ellehco
EXTD=YEAR: 1997
EXTT0=
EXTT1=
EXTT2=
EXTT3=
EXTT4=
EXTT5=
EXTT6=
PLAYORDER=
